<?xml version="1.0" encoding="utf-8"?>
<!-- Generator: Adobe Illustrator 22.0.1, SVG Export Plug-In . SVG Version: 6.00 Build 0)  -->
<svg version="1.1" id="Layer_1" xmlns="http://www.w3.org/2000/svg" xmlns:xlink="http://www.w3.org/1999/xlink" x="0px" y="0px"
	 viewBox="0 0 99.2 113.4" style="enable-background:new 0 0 99.2 113.4;" xml:space="preserve">
<style type="text/css">
	.st0{fill:#0099F8;}
	.st1{fill:#001E82;}
</style>
<g>
	<path class="st0" d="M66.4,49.7L62,75.5c-0.9,4.6-4,5.9-6.7,5.9H35l8.6-47.2c-8.5-3.9-17.3-6.5-24.2-6.5c-6.6,0-12,1.8-15.5,6.1
		c-2.5,3-3.8,6.8-3.8,11.3c0,13.4,10.5,32,28.6,47.2c16.1,13.4,33.8,20.9,46.7,20.9c6.4,0,11.6-2,15-5.9c2.7-3,3.7-7,3.7-11.5
		C94.1,82.8,83.5,64.6,66.4,49.7z"/>
	<g>
		<path class="st1" d="M29.9-0.2c-3.2,0-5.9,2.2-6.6,5.6l-2.9,15.5H46L35,81.4h20.3c2.7,0,5.8-1.3,6.7-5.9l9.3-54.5h18.4
			c3.2,0,5.9-2.1,6.6-5.5l2.9-15.6H29.9z"/>
	</g>
</g>
</svg>